<svg id="text" xmlns="http://www.w3.org/2000/svg" viewBox="0 0 1366 276.83"><title>ddr</title><path d="M174.32,34.62l-115,103.09,115,100.77H101.93L8.69,156.63Q0,149.49,0,137.71a24.18,24.18,0,0,1,2.22-10.23,25,25,0,0,1,6.08-8.3l94.4-84.56Z" transform="translate(0 0.32)"/><path d="M499.41,160.68a120.61,120.61,0,0,1-8.78,46.52,108.82,108.82,0,0,1-60.91,60.62,120.71,120.71,0,0,1-46.14,8.69H248.07a25.77,25.77,0,0,1-10-1.93,24.11,24.11,0,0,1-13.32-13.32,25.81,25.81,0,0,1-1.93-10V25a25.29,25.29,0,0,1,1.93-9.85A25.6,25.6,0,0,1,230,7a23.94,23.94,0,0,1,8-5.4,25.77,25.77,0,0,1,10-1.93H383.58a120.52,120.52,0,0,1,46.14,8.69,108.61,108.61,0,0,1,60.91,60.71,120.87,120.87,0,0,1,8.78,46.43Zm-50.19-45.17a73.56,73.56,0,0,0-4.73-26.84,58.73,58.73,0,0,0-13.42-20.75A60.76,60.76,0,0,0,410.32,54.6a72.75,72.75,0,0,0-26.74-4.73H273V226.32H383.58a72.75,72.75,0,0,0,26.74-4.73,60.76,60.76,0,0,0,20.75-13.32,58.9,58.9,0,0,0,13.42-20.66,73.29,73.29,0,0,0,4.73-26.93Z" transform="translate(0 0.32)"/><path d="M824.89,160.68a120.61,120.61,0,0,1-8.78,46.52,108.82,108.82,0,0,1-60.91,60.62,120.74,120.74,0,0,1-46.14,8.69H573.54a25.81,25.81,0,0,1-10-1.93,24.19,24.19,0,0,1-13.32-13.32,26,26,0,0,1-1.93-10V25a25.48,25.48,0,0,1,1.93-9.85A25.8,25.8,0,0,1,555.49,7a24,24,0,0,1,8-5.4,25.81,25.81,0,0,1,10-1.93H709.06A120.55,120.55,0,0,1,755.2,8.37a108.61,108.61,0,0,1,60.91,60.71,120.87,120.87,0,0,1,8.78,46.43ZM774.7,115.51A73.56,73.56,0,0,0,770,88.67a58.87,58.87,0,0,0-13.42-20.75A60.76,60.76,0,0,0,735.8,54.6a72.79,72.79,0,0,0-26.74-4.73H598.45V226.32H709.06a72.79,72.79,0,0,0,26.74-4.73,60.76,60.76,0,0,0,20.75-13.32A59,59,0,0,0,770,187.61a73.29,73.29,0,0,0,4.73-26.93Z" transform="translate(0 0.32)"/><path d="M1150.75,92.73a102.6,102.6,0,0,1-4.24,30.69A86.34,86.34,0,0,1,1135,147.26a81.13,81.13,0,0,1-16.7,17.67A100.46,100.46,0,0,1,1098.53,177a95.05,95.05,0,0,1-20.84,6.86A100.79,100.79,0,0,1,1057.9,186l104.82,90.54h-77.6L980.49,186h-36.1V135.78H1057.9a58.32,58.32,0,0,0,17.27-4,42.9,42.9,0,0,0,13.52-8.59,36.8,36.8,0,0,0,8.78-13,46.22,46.22,0,0,0,3.09-17.47V61.07a15.47,15.47,0,0,0-1.06-6.47,7.8,7.8,0,0,0-2.7-3.28,7.9,7.9,0,0,0-3.48-1.26c-1.22-.12-2.35-.19-3.38-.19H924.31V276.51H874.12V25a25.29,25.29,0,0,1,1.93-9.85A25.6,25.6,0,0,1,881.35,7a24,24,0,0,1,8-5.4,25.77,25.77,0,0,1,10-1.93h190.53q16.8,0,28.38,6.08A57.68,57.68,0,0,1,1137.14,21a59.24,59.24,0,0,1,10.43,19.79,69.47,69.47,0,0,1,3.18,19.88Z" transform="translate(0 0.32)"/><path d="M1263.11,34.62l94.59,84.56a25.16,25.16,0,0,1,6.08,8.3,24.85,24.85,0,0,1-.1,20.75,24.78,24.78,0,0,1-6.37,8.4l-93.43,81.85h-72.2l115-100.77-115-103.09Z" transform="translate(0 0.32)"/></svg>